<svg width="26" height="29" viewBox="0 0 26 29" fill="none" xmlns="http://www.w3.org/2000/svg">
<path d="M0 26.2812C0 27.7822 1.24777 29 2.78571 29H23.2143C24.7522 29 26 27.7822 26 26.2812V10.875H0V26.2812ZM18.5714 15.1797C18.5714 14.8059 18.8848 14.5 19.2679 14.5H21.5893C21.9723 14.5 22.2857 14.8059 22.2857 15.1797V17.4453C22.2857 17.8191 21.9723 18.125 21.5893 18.125H19.2679C18.8848 18.125 18.5714 17.8191 18.5714 17.4453V15.1797ZM18.5714 22.4297C18.5714 22.0559 18.8848 21.75 19.2679 21.75H21.5893C21.9723 21.75 22.2857 22.0559 22.2857 22.4297V24.6953C22.2857 25.0691 21.9723 25.375 21.5893 25.375H19.2679C18.8848 25.375 18.5714 25.0691 18.5714 24.6953V22.4297ZM11.1429 15.1797C11.1429 14.8059 11.4562 14.5 11.8393 14.5H14.1607C14.5437 14.5 14.8571 14.8059 14.8571 15.1797V17.4453C14.8571 17.8191 14.5437 18.125 14.1607 18.125H11.8393C11.4562 18.125 11.1429 17.8191 11.1429 17.4453V15.1797ZM11.1429 22.4297C11.1429 22.0559 11.4562 21.75 11.8393 21.75H14.1607C14.5437 21.75 14.8571 22.0559 14.8571 22.4297V24.6953C14.8571 25.0691 14.5437 25.375 14.1607 25.375H11.8393C11.4562 25.375 11.1429 25.0691 11.1429 24.6953V22.4297ZM3.71429 15.1797C3.71429 14.8059 4.02768 14.5 4.41071 14.5H6.73214C7.11518 14.5 7.42857 14.8059 7.42857 15.1797V17.4453C7.42857 17.8191 7.11518 18.125 6.73214 18.125H4.41071C4.02768 18.125 3.71429 17.8191 3.71429 17.4453V15.1797ZM3.71429 22.4297C3.71429 22.0559 4.02768 21.75 4.41071 21.75H6.73214C7.11518 21.75 7.42857 22.0559 7.42857 22.4297V24.6953C7.42857 25.0691 7.11518 25.375 6.73214 25.375H4.41071C4.02768 25.375 3.71429 25.0691 3.71429 24.6953V22.4297ZM23.2143 3.625H20.4286V0.90625C20.4286 0.407812 20.0107 0 19.5 0H17.6429C17.1321 0 16.7143 0.407812 16.7143 0.90625V3.625H9.28571V0.90625C9.28571 0.407812 8.86786 0 8.35714 0H6.5C5.98929 0 5.57143 0.407812 5.57143 0.90625V3.625H2.78571C1.24777 3.625 0 4.84277 0 6.34375V9.0625H26V6.34375C26 4.84277 24.7522 3.625 23.2143 3.625Z" fill="#A7A7A7"/>
</svg>
