<svg width="30" height="23" viewBox="0 0 30 23" fill="none" xmlns="http://www.w3.org/2000/svg">
<path d="M29.5848 12.4086L19.5843 22.3819C18.6914 23.2724 17.1437 22.6491 17.1437 21.3727V15.6737H9.04807C8.25636 15.6737 7.61943 15.0385 7.61943 14.2489V8.54984C7.61943 7.76029 8.25636 7.12508 9.04807 7.12508H17.1437V1.42603C17.1437 0.155612 18.6854 -0.473659 19.5843 0.416819L29.5848 10.3902C30.1384 10.9482 30.1384 11.8505 29.5848 12.4086ZM11.4291 22.0851V19.7105C11.4291 19.3187 11.1077 18.9981 10.7148 18.9981H5.71457C4.66095 18.9981 3.80971 18.1492 3.80971 17.0984V5.70032C3.80971 4.64955 4.66095 3.80063 5.71457 3.80063H10.7148C11.1077 3.80063 11.4291 3.48006 11.4291 3.08825V0.713644C11.4291 0.321834 11.1077 0.00126261 10.7148 0.00126261H5.71457C2.55965 0.00126261 0 2.55396 0 5.70032V17.0984C0 20.2448 2.55965 22.7975 5.71457 22.7975H10.7148C11.1077 22.7975 11.4291 22.4769 11.4291 22.0851Z" fill="#1562E8"/>
</svg>
