<svg width="28" height="23" viewBox="0 0 28 23" fill="none" xmlns="http://www.w3.org/2000/svg">
<path d="M27.3 15.8125H26.6V10.9564C26.6 10.3859 26.3769 9.83789 25.9831 9.43359L21.6125 4.9459C21.2188 4.5416 20.685 4.3125 20.1294 4.3125H18.2V2.15625C18.2 0.96582 17.2594 0 16.1 0H2.1C0.940625 0 0 0.96582 0 2.15625V16.5312C0 17.7217 0.940625 18.6875 2.1 18.6875H2.8C2.8 21.0684 4.68125 23 7 23C9.31875 23 11.2 21.0684 11.2 18.6875H16.8C16.8 21.0684 18.6812 23 21 23C23.3188 23 25.2 21.0684 25.2 18.6875H27.3C27.685 18.6875 28 18.3641 28 17.9688V16.5312C28 16.1359 27.685 15.8125 27.3 15.8125ZM7 20.8438C5.84062 20.8438 4.9 19.8779 4.9 18.6875C4.9 17.4971 5.84062 16.5312 7 16.5312C8.15938 16.5312 9.1 17.4971 9.1 18.6875C9.1 19.8779 8.15938 20.8438 7 20.8438ZM21 20.8438C19.8406 20.8438 18.9 19.8779 18.9 18.6875C18.9 17.4971 19.8406 16.5312 21 16.5312C22.1594 16.5312 23.1 17.4971 23.1 18.6875C23.1 19.8779 22.1594 20.8438 21 20.8438ZM24.5 11.5H18.2V6.46875H20.1294L24.5 10.9564V11.5Z" fill="#A7A7A7"/>
</svg>
