<svg width="29" height="19" viewBox="0 0 29 19" fill="none" xmlns="http://www.w3.org/2000/svg">
<path d="M19.2902 9.50131C18.5245 9.50131 17.8041 9.11963 17.4144 8.50893L14.501 3.98807L11.5921 8.50893C11.1979 9.12387 10.4775 9.50556 9.71177 9.50556C9.50788 9.50556 9.30399 9.48011 9.10916 9.42498L2.90174 7.76252V15.3114C2.90174 15.9348 3.35483 16.4777 3.99823 16.6261L13.7942 18.9205C14.2563 19.0265 14.7411 19.0265 15.1988 18.9205L25.0038 16.6261C25.6472 16.4734 26.1003 15.9306 26.1003 15.3114V7.76252L19.8929 9.42074C19.698 9.47587 19.4941 9.50131 19.2902 9.50131ZM28.9231 4.74296L26.5896 0.383254C26.4492 0.120315 26.1456 -0.0323601 25.8329 0.00580853L14.501 1.35867L18.6559 7.80917C18.8281 8.07635 19.1724 8.20358 19.4941 8.11876L28.4609 5.72262C28.9095 5.59963 29.127 5.13313 28.9231 4.74296ZM2.41239 0.383254L0.0789442 4.74296C-0.12948 5.13313 0.092537 5.59963 0.536572 5.71838L9.50335 8.11452C9.82505 8.19934 10.1694 8.07211 10.3416 7.80493L14.501 1.35867L3.16453 0.00580853C2.85189 -0.0281191 2.55285 0.120315 2.41239 0.383254Z" fill="#1562E8"/>
</svg>
