<svg width="19" height="16" viewBox="0 0 19 16" fill="none" xmlns="http://www.w3.org/2000/svg">
<g clip-path="url(#clip0_220_3766)">
<path d="M17.4206 9.41622L18.98 2.91622C19.0926 2.44691 18.716 2 18.208 2H5.25165L4.9493 0.599688C4.87396 0.250656 4.54978 0 4.1737 0H0.791667C0.354436 0 0 0.335781 0 0.75V1.25C0 1.66422 0.354436 2 0.791667 2H3.09684L5.41404 12.7323C4.85968 13.0344 4.48611 13.6007 4.48611 14.25C4.48611 15.2165 5.31314 16 6.33333 16C7.35353 16 8.18056 15.2165 8.18056 14.25C8.18056 13.7602 7.9679 13.3177 7.6256 13H14.541C14.1988 13.3177 13.9861 13.7602 13.9861 14.25C13.9861 15.2165 14.8131 16 15.8333 16C16.8535 16 17.6806 15.2165 17.6806 14.25C17.6806 13.5571 17.2554 12.9584 16.6389 12.6748L16.8209 11.9162C16.9335 11.4469 16.5569 11 16.0489 11H7.19483L6.97894 10H16.6487C17.0183 10 17.3387 9.75769 17.4206 9.41622Z" fill="#1562E8"/>
</g>
<defs>
<clipPath id="clip0_220_3766">
<rect width="19" height="16" fill="white"/>
</clipPath>
</defs>
</svg>
