<svg width="25" height="25" viewBox="0 0 25 25" fill="none" xmlns="http://www.w3.org/2000/svg">
<path d="M8.33333 0H2.77778C2.04107 0 1.33453 0.292658 0.813592 0.813592C0.292658 1.33453 0 2.04107 0 2.77778V8.33333C0 9.07005 0.292658 9.77658 0.813592 10.2975C1.33453 10.8185 2.04107 11.1111 2.77778 11.1111H8.33333C9.07005 11.1111 9.77658 10.8185 10.2975 10.2975C10.8185 9.77658 11.1111 9.07005 11.1111 8.33333V2.77778C11.1111 2.04107 10.8185 1.33453 10.2975 0.813592C9.77658 0.292658 9.07005 0 8.33333 0Z" fill="#1562E8"/>
<path d="M22.2222 0H16.6667C15.93 0 15.2234 0.292658 14.7025 0.813592C14.1815 1.33453 13.8889 2.04107 13.8889 2.77778V8.33333C13.8889 9.07005 14.1815 9.77658 14.7025 10.2975C15.2234 10.8185 15.93 11.1111 16.6667 11.1111H22.2222C22.9589 11.1111 23.6655 10.8185 24.1864 10.2975C24.7073 9.77658 25 9.07005 25 8.33333V2.77778C25 2.04107 24.7073 1.33453 24.1864 0.813592C23.6655 0.292658 22.9589 0 22.2222 0Z" fill="#1562E8"/>
<path d="M8.33333 13.8887H2.77778C2.04107 13.8887 1.33453 14.1813 0.813592 14.7023C0.292658 15.2232 0 15.9297 0 16.6664V22.222C0 22.9587 0.292658 23.6653 0.813592 24.1862C1.33453 24.7071 2.04107 24.9998 2.77778 24.9998H8.33333C9.07005 24.9998 9.77658 24.7071 10.2975 24.1862C10.8185 23.6653 11.1111 22.9587 11.1111 22.222V16.6664C11.1111 15.9297 10.8185 15.2232 10.2975 14.7023C9.77658 14.1813 9.07005 13.8887 8.33333 13.8887Z" fill="#1562E8"/>
<path d="M22.2222 13.8887H16.6667C15.93 13.8887 15.2234 14.1813 14.7025 14.7023C14.1815 15.2232 13.8889 15.9297 13.8889 16.6664V22.222C13.8889 22.9587 14.1815 23.6653 14.7025 24.1862C15.2234 24.7071 15.93 24.9998 16.6667 24.9998H22.2222C22.9589 24.9998 23.6655 24.7071 24.1864 24.1862C24.7073 23.6653 25 22.9587 25 22.222V16.6664C25 15.9297 24.7073 15.2232 24.1864 14.7023C23.6655 14.1813 22.9589 13.8887 22.2222 13.8887Z" fill="#1562E8"/>
</svg>
