<svg width="34" height="27" viewBox="0 0 34 27" fill="none" xmlns="http://www.w3.org/2000/svg">
<path d="M5.1 11.5714C6.97531 11.5714 8.5 9.84174 8.5 7.71429C8.5 5.58683 6.97531 3.85714 5.1 3.85714C3.22469 3.85714 1.7 5.58683 1.7 7.71429C1.7 9.84174 3.22469 11.5714 5.1 11.5714ZM28.9 11.5714C30.7753 11.5714 32.3 9.84174 32.3 7.71429C32.3 5.58683 30.7753 3.85714 28.9 3.85714C27.0247 3.85714 25.5 5.58683 25.5 7.71429C25.5 9.84174 27.0247 11.5714 28.9 11.5714ZM30.6 13.5H27.2C26.265 13.5 25.4203 13.9279 24.8041 14.621C26.945 15.9529 28.4644 18.3576 28.7938 21.2143H32.3C33.2403 21.2143 34 20.3525 34 19.2857V17.3571C34 15.2297 32.4753 13.5 30.6 13.5ZM17 13.5C20.2884 13.5 22.95 10.4806 22.95 6.75C22.95 3.01942 20.2884 0 17 0C13.7116 0 11.05 3.01942 11.05 6.75C11.05 10.4806 13.7116 13.5 17 13.5ZM21.08 15.4286H20.6391C19.5341 16.0312 18.3069 16.3929 17 16.3929C15.6931 16.3929 14.4713 16.0312 13.3609 15.4286H12.92C9.54125 15.4286 6.8 18.5384 6.8 22.3714V24.1071C6.8 25.7042 7.94219 27 9.35 27H24.65C26.0578 27 27.2 25.7042 27.2 24.1071V22.3714C27.2 18.5384 24.4587 15.4286 21.08 15.4286ZM9.19594 14.621C8.57969 13.9279 7.735 13.5 6.8 13.5H3.4C1.52469 13.5 0 15.2297 0 17.3571V19.2857C0 20.3525 0.759687 21.2143 1.7 21.2143H5.20094C5.53563 18.3576 7.055 15.9529 9.19594 14.621Z" fill="#1562E8"/>
</svg>
